<?xml version="1.0" encoding="iso-8859-1"?>
<!-- Generator: Adobe Illustrator 19.0.0, SVG Export Plug-In . SVG Version: 6.00 Build 0)  -->
<svg version="1.1" id="Layer_1" xmlns="http://www.w3.org/2000/svg" xmlns:xlink="http://www.w3.org/1999/xlink" x="0px" y="0px"
	 viewBox="0 0 512 512" style="enable-background:new 0 0 512 512;" xml:space="preserve">
<path style="fill:#2C2F38;" d="M335.448,357.517v97.103c0,9.754,7.901,17.655,17.655,17.655h141.241
	c9.754,0,17.655-7.901,17.655-17.655V57.379c-0.026-9.737-7.918-17.629-17.655-17.655H353.103
	c-9.737,0.026-17.629,7.918-17.655,17.655V357.517z"/>
<g>
	<path style="fill:#464F5D;" d="M379.586,75.034h97.103c4.873,0,8.828,3.955,8.828,8.828v26.483c0,4.873-3.955,8.828-8.828,8.828
		h-97.103c-4.873,0-8.828-3.955-8.828-8.828V83.862C370.759,78.989,374.713,75.034,379.586,75.034z"/>
	<path style="fill:#464F5D;" d="M379.586,154.483h97.103c4.873,0,8.828,3.955,8.828,8.828v26.483c0,4.873-3.955,8.828-8.828,8.828
		h-97.103c-4.873,0-8.828-3.955-8.828-8.828V163.31C370.759,158.438,374.713,154.483,379.586,154.483z"/>
</g>
<g>
	<path style="fill:#2C3E50;" d="M476.69,242.759h-88.276c-4.873,0-8.828-3.955-8.828-8.828c0-4.873,3.955-8.828,8.828-8.828h88.276
		c4.873,0,8.828,3.955,8.828,8.828C485.517,238.804,481.562,242.759,476.69,242.759z"/>
	<path style="fill:#2C3E50;" d="M476.69,278.069h-88.276c-4.873,0-8.828-3.955-8.828-8.828c0-4.873,3.955-8.828,8.828-8.828h88.276
		c4.873,0,8.828,3.955,8.828,8.828C485.517,274.114,481.562,278.069,476.69,278.069z"/>
	<path style="fill:#2C3E50;" d="M476.69,313.379h-88.276c-4.873,0-8.828-3.955-8.828-8.828s3.955-8.828,8.828-8.828h88.276
		c4.873,0,8.828,3.955,8.828,8.828S481.562,313.379,476.69,313.379z"/>
	<path style="fill:#2C3E50;" d="M476.69,348.69h-88.276c-4.873,0-8.828-3.955-8.828-8.828c0-4.873,3.955-8.828,8.828-8.828h88.276
		c4.873,0,8.828,3.955,8.828,8.828C485.517,344.735,481.562,348.69,476.69,348.69z"/>
</g>
<circle style="fill:#CC4B4C;" cx="441.379" cy="410.483" r="26.483"/>
<path style="fill:#4FBA6F;" d="M379.586,428.138c-4.873,0-8.828-3.946-8.828-8.819c0,0,0,0,0-0.009v-8.828
	c0-4.873,3.955-8.828,8.828-8.828s8.828,3.955,8.828,8.828v8.828C388.414,424.183,384.468,428.138,379.586,428.138L379.586,428.138z
	"/>
<path style="fill:#464F5D;" d="M17.655,119.172h353.103c9.754,0,17.655,7.901,17.655,17.655v203.034
	c0,9.754-7.901,17.655-17.655,17.655H17.655C7.901,357.517,0,349.617,0,339.862V136.828C0,127.073,7.901,119.172,17.655,119.172z"/>
<path style="fill:#B0D3F0;" d="M388.414,128v185.379c0,4.873-3.955,8.828-8.828,8.828H8.828c-4.873,0-8.828-3.955-8.828-8.828V128
	c0-4.873,3.955-8.828,8.828-8.828h370.759C384.459,119.172,388.414,123.127,388.414,128z"/>
<path style="fill:#464F5D;" d="M247.172,410.483H268.8c6.162,0.026,11.802,3.46,14.654,8.916l14.477,26.483
	c4.802,8.527,1.783,19.324-6.744,24.126c-2.454,1.377-5.191,2.154-7.998,2.269H105.225c-9.772-0.38-17.39-8.616-17.011-18.388
	c0.106-2.807,0.883-5.553,2.269-8.007l14.477-26.483c2.851-5.455,8.492-8.889,14.654-8.916h21.628"/>
<path style="fill:#2C2F38;" d="M141.241,357.517h105.931l0,0v70.621c0,4.873-3.955,8.828-8.828,8.828h-88.276
	c-4.873,0-8.828-3.955-8.828-8.828V357.517L141.241,357.517z"/>
<g>
	<path style="fill:#FFFFFF;" d="M35.31,180.966c-4.873,0-8.828-3.955-8.828-8.828c0-2.339,0.927-4.581,2.586-6.241l17.655-17.655
		c3.478-3.416,9.066-3.363,12.482,0.115c3.372,3.434,3.372,8.934,0,12.367l-17.655,17.655
		C39.901,180.039,37.65,180.966,35.31,180.966z"/>
	<path style="fill:#FFFFFF;" d="M52.966,216.276c-4.873,0-8.828-3.955-8.828-8.828c0-2.339,0.927-4.582,2.586-6.241l52.966-52.966
		c3.478-3.416,9.066-3.363,12.482,0.115c3.372,3.434,3.372,8.934,0,12.367l-52.966,52.966
		C57.556,215.349,55.305,216.276,52.966,216.276z"/>
</g>
<g>
</g>
<g>
</g>
<g>
</g>
<g>
</g>
<g>
</g>
<g>
</g>
<g>
</g>
<g>
</g>
<g>
</g>
<g>
</g>
<g>
</g>
<g>
</g>
<g>
</g>
<g>
</g>
<g>
</g>
</svg>
